Coordinates
version=1
nRows=17
nColumns=36
inDegrees=yes

Units are S.I. units (second, meters, Newtons, ...)
If the header above contains a line with 'inDegrees', this indicates whether rotational values are in degrees (yes) or radians (no).

endheader
time	pelvis_tilt	pelvis_list	pelvis_rotation	pelvis_tx	pelvis_ty	pelvis_tz	hip_flexion_r	hip_adduction_r	hip_rotation_r	knee_angle_r	knee_angle_r_beta	ankle_angle_r	subtalar_angle_r	mtp_angle_r	hip_flexion_l	hip_adduction_l	hip_rotation_l	knee_angle_l	knee_angle_l_beta	ankle_angle_l	subtalar_angle_l	mtp_angle_l	lumbar_extension	lumbar_bending	lumbar_rotation	arm_flex_r	arm_add_r	arm_rot_r	elbow_flex_r	pro_sup_r	arm_flex_l	arm_add_l	arm_rot_l	elbow_flex_l	pro_sup_l
      8.35000000	    -25.54783996	     -3.54317277	     -1.28238436	      0.05409041	      0.94960595	     -0.03016830	     44.55753735	      2.00231482	     -0.33261024	     23.61166953	      0.41210138	     17.97783322	      3.99944693	     -7.49999987	     52.00422252	    -11.14801493	     -1.39316781	     38.74949491	      0.67630627	     18.95770771	      9.69829884	     -7.49999987	      2.30254644	      4.34854772	      6.51339458	      4.19692070	    -23.57805644	     21.77366080	    101.51975356	     92.16639595	      7.96894728	    -16.00569406	     29.63304622	     98.09381696	     94.81555083
      8.36666670	    -26.23376789	     -3.54795696	     -1.43854837	      0.03924465	      0.94204070	     -0.02492168	     47.42157115	      1.88390225	     -0.87709546	     26.33452994	      0.45962425	     18.50525307	      4.20445377	     -7.49999987	     54.68647472	    -11.56350331	     -1.61303178	     41.11291977	      0.71755582	     19.95061625	     10.54953145	     -7.49999987	      0.55723294	      4.24083665	      6.92112564	      7.64200919	    -23.51524511	     21.30262571	    100.33059093	     90.61928601	     11.25376005	    -15.24053689	     29.32053273	     97.05079876	     93.23311677
      8.38333330	    -26.98931899	     -3.61219236	     -1.63289990	      0.03702622	      0.92792048	     -0.02487431	     50.44944973	      1.84472644	     -1.38914241	     29.39860946	      0.51310253	     19.37849858	      4.51079451	     -7.49999987	     57.60004177	    -12.14005603	     -1.93454985	     43.90936626	      0.76636301	     21.08180575	     11.92416534	     -7.49999987	     -0.92497409	      4.13357874	      7.19867974	      9.97055573	    -23.47902609	     21.02220177	     99.49193634	     89.86274282	     13.66722680	    -14.94023356	     29.55374758	     95.95437959	     92.57445782
      8.40000000	    -28.24434039	     -3.65315432	     -1.91696409	      0.03238891	      0.91048275	     -0.02782894	     54.25810234	      1.76124929	     -1.92861606	     32.88287803	      0.57391449	     20.33371992	      4.56800361	     -7.49999987	     61.16459030	    -12.69420317	     -2.10148510	     46.99279606	      0.82017902	     22.07345047	     12.89985075	     -7.49999987	     -1.72192333	      4.01446580	      8.20444486	     11.78673828	    -23.38911599	     20.09233420	     98.23132508	     90.77434974	     16.41680525	    -14.27393641	     31.61867648	     94.13734481	     94.53602961
      8.41666670	    -28.81664468	     -3.57203202	     -2.29547282	      0.01917657	      0.88700902	     -0.03438360	     58.33996655	      1.42985377	     -2.47640036	     37.83038824	      0.66026483	     21.74171602	      4.71310416	     -7.49999987	     64.62563439	    -13.16384863	     -2.21213934	     50.96345283	      0.88948005	     23.47257402	     13.89109688	     -7.49999987	     -3.60743279	      3.89516153	      8.34099939	     14.47112324	    -23.70674189	     20.19316964	     99.34866776	     90.62367639	     19.07524820	    -14.10798348	     33.23968330	     94.97413310	     94.69168647
      8.43333330	    -29.66705035	     -3.00521511	     -2.40859991	      0.01502902	      0.87146174	     -0.03452596	     62.69249945	      0.61969071	     -2.61203925	     43.08639038	      0.75199937	     23.43951205	      4.76796196	     -7.49999987	     68.11483522	    -13.08228234	     -2.50511194	     54.70077359	      0.95470860	     24.58008770	     13.80147599	     -7.49999987	     -4.60205644	      3.23646753	      8.67012514	     15.08984220	    -23.91202524	     18.60373533	     98.77188261	     91.22235435	     21.38542908	    -13.82006690	     34.44351351	     93.06804441	     96.23167121
      8.45000000	    -29.52297058	     -2.87867088	     -2.50900702	      0.01320405	      0.84965051	     -0.03191660	     65.78437980	      0.25909310	     -2.75063942	     48.31587251	      0.84327106	     25.19353137	      4.35494888	     -7.49999987	     70.71882368	    -13.46481927	     -2.48422499	     58.91539222	      1.02826757	     26.20932634	     14.35072355	     -7.49999987	     -6.95537590	      3.05907618	      8.68746978	     16.45141380	    -23.84935973	     17.97599000	     99.24507569	     91.12870125	     23.32212943	    -13.38867200	     33.86498779	     92.82227859	     96.15024379
      8.46666670	    -30.08928844	     -2.07606479	     -2.25545750	     -0.01186662	      0.83923927	     -0.03446993	     69.95571622	     -1.02301418	     -2.79300467	     53.57400063	      0.93504270	     26.83048446	      5.30712378	     -7.49999987	     74.06849544	    -13.14414947	     -2.86436137	     62.59994731	      1.09257519	     26.99167593	     14.99220827	     -7.49999987	     -9.22471444	      1.78483340	      9.69378656	     17.34446235	    -24.11475928	     15.17183864	    101.23099907	     93.53401220	     27.83100757	    -12.58658209	     35.17454933	     93.32007101	     98.59745591
      8.48333330	    -29.99801117	     -1.92397643	     -2.03960557	     -0.01126693	      0.82995028	     -0.03399307	     72.46493298	     -1.76292098	     -3.09216517	     57.49097792	      1.00340685	     28.20369242	      5.52104808	     -7.49999987	     76.40328106	    -13.15002283	     -2.81828932	     65.84965709	      1.14929333	     27.75338295	     15.27078278	     -7.49999987	    -12.17263562	      1.46092374	      9.18644372	     18.47131949	    -24.35554852	     14.79075175	    102.42973994	     92.50051846	     29.43713527	    -13.04475397	     35.02798772	     93.97652136	     96.90516387
      8.50000000	    -29.63016468	     -1.71572339	     -1.99768677	     -0.00454569	      0.81962101	     -0.02892437	     73.90672700	     -2.10303864	     -2.95993180	     60.34438306	      1.05320817	     28.96919794	      5.44400787	     -7.49999987	     77.53535353	    -13.33454354	     -2.99759145	     68.15054217	      1.18945135	     28.34020734	     15.20816748	     -7.49999987	    -14.22689476	      0.82026108	      9.82692716	     17.99725306	    -24.03026600	     12.06935252	    103.12846083	     94.78056098	     31.48646272	    -12.69747834	     34.92677006	     92.96642904	     97.81854386
      8.51666670	    -29.62780197	     -1.62569832	     -2.23019336	     -0.01642618	      0.79440631	     -0.03877792	     76.46788920	     -2.33852569	     -2.91010202	     64.11659109	      1.11904562	     29.95481372	      5.36266336	     -7.49999987	     79.83752832	    -13.69150876	     -2.86674512	     71.46282317	      1.24726156	     29.32063029	     15.35953927	     -7.49999987	    -15.62661263	      0.73391063	     10.16239145	     19.32603743	    -24.23362255	     11.60742113	    103.47885925	     95.27995189	     32.99728759	    -12.49304592	     34.29607587	     93.39236142	     98.26775304
      8.53333330	    -30.36324793	     -1.02119418	     -2.01688503	     -0.03163018	      0.77847986	     -0.03549714	     80.21760895	     -3.22159650	     -2.56764054	     68.21300878	      1.19054160	     31.37645116	      6.13692414	     -7.49999987	     83.02471388	    -13.48332240	     -3.11660131	     74.49958932	      1.30026312	     29.90916253	     15.25356790	     -7.49999987	    -17.08761994	     -0.02728389	      9.94784390	     19.77680647	    -24.48602642	     10.64923241	    104.84660852	     95.94963710	     33.95502670	    -13.00408689	     33.68791158	     94.81186126	     98.62582093
      8.55000000	    -30.94498034	     -0.69560797	     -1.86246733	     -0.05388289	      0.76561808	     -0.03554783	     83.75058544	     -3.85939008	     -2.39473973	     71.61568653	      1.24992953	     32.09544153	      6.43666314	     -7.49999987	     86.25122259	    -13.40699943	     -3.00308093	     77.23762740	      1.34805090	     30.01649722	     15.18388471	     -7.49999987	    -18.68332539	     -0.38057562	     10.34156441	     21.98064320	    -25.00516290	     10.22216256	    106.69394356	     95.83377286	     36.73041797	    -12.32045965	     34.03225062	     96.05657920	     97.90344028
      8.56666670	    -30.99706885	     -0.23136184	     -2.04733926	     -0.05298441	      0.75102532	     -0.04797596	     86.18239191	     -4.13054663	     -1.83626234	     74.19555680	      1.29495676	     32.63569835	      6.33399377	     -7.49999987	     88.29579044	    -13.25792197	     -3.07162251	     79.52634583	      1.38799658	     30.01861070	     14.48534412	     -7.49999987	    -19.79889143	     -0.61443366	     10.64677256	     22.40709721	    -25.42388102	      9.88491138	    107.76882761	     96.38918422	     37.03671604	    -11.79637800	     33.30544198	     95.96192886	     98.30654082
      8.58333330	    -30.93307544	      0.23263682	     -2.09325197	     -0.05389440	      0.73056074	     -0.04727820	     88.61005868	     -4.42527940	     -1.16539338	     77.23569237	      1.34801713	     33.13684676	      6.24561601	     -7.49999987	     90.30225975	    -13.05293850	     -3.20905045	     82.01115800	      1.43136473	     30.02394443	     13.66302029	     -7.49999987	    -20.15142054	     -0.99733850	     10.89405351	     20.92897991	    -25.64413121	      8.90811039	    108.90286544	     95.83158043	     36.66567807	    -11.37565417	     34.20707226	     95.17825339	     96.96304560
      8.60000000	    -31.19937420	      0.58827905	     -2.08504647	     -0.06506910	      0.72245409	     -0.05402474	     90.90727740	     -4.83094138	     -0.67110571	     79.43863713	      1.38646577	     33.19991451	      6.08415512	     -7.49999987	     92.27098809	    -12.64771596	     -3.15537596	     83.78419951	      1.46231014	     29.72100681	     12.75476678	     -7.49999987	    -20.53039731	     -0.95372156	     10.77951085	     21.33139139	    -26.29432430	      8.78303749	    109.92448535	     95.79376363	     38.07358662	    -10.93625264	     34.12309461	     95.66881116	     96.67384618
      8.61666670	    -31.83379446	      0.60665468	     -1.65863887	     -0.08975597	      0.70324607	     -0.04127959	     94.06108179	     -5.29788416	     -0.42498963	     82.13500846	      1.43352633	     33.46845120	      5.99036205	     -7.49999987	     95.44066813	    -12.27988909	     -2.81244276	     85.92719874	      1.49971254	     29.20929086	     12.25275318	     -7.49999987	    -20.18212191	     -1.04593168	     10.67426598	     22.80830592	    -26.64489028	      8.62493374	    110.78183601	     96.15460820	     40.35391884	    -10.91430592	     34.62441109	     95.86819559	     97.00975575
